<svg width="159" height="32" viewBox="0 0 159 32" fill="none" xmlns="http://www.w3.org/2000/svg">
<g clip-path="url(#clip0_467_4250)">
<path d="M62.1376 5.02386C62.1376 5.19645 62.1296 5.36905 62.1137 5.53633C61.8534 8.06685 59.7186 10.0477 57.1137 10.0477C54.5088 10.0477 52.3448 8.04029 52.1137 5.48322C52.0952 5.33187 52.0898 5.18052 52.0898 5.02386C52.0898 4.86719 52.0952 4.71584 52.1137 4.56449C52.3448 2.00476 54.4982 0 57.1137 0C59.7292 0 61.8534 1.97555 62.1137 4.51138C62.1296 4.67866 62.1376 4.85126 62.1376 5.02386Z" fill="white"/>
<path d="M62.0819 31.923V16.2354C62.0819 13.5801 60.1754 11.1346 57.5307 10.9062C54.5647 10.6486 52.082 12.9774 52.082 15.8876V31.9257C52.082 31.9682 52.1165 32.0027 52.159 32.0027H62.0049C62.0474 32.0027 62.0819 31.9682 62.0819 31.9257V31.923Z" fill="white"/>
<path d="M158.946 0.106301V31.8957C158.946 31.9382 158.911 31.9727 158.869 31.9727H149.087C149.092 31.9435 149.092 31.9196 149.092 31.8931V8.93788C149.092 6.10997 146.854 3.81843 144.092 3.81843C142.709 3.81843 141.461 4.38932 140.555 5.31868C139.65 6.24804 139.092 7.5279 139.092 8.93788V31.8878C139.092 31.917 139.092 31.9409 139.097 31.9674H129.315C129.273 31.9674 129.238 31.9329 129.238 31.8904V0.106301C129.238 0.063816 129.273 0.0292969 129.315 0.0292969H158.872C158.914 0.0292969 158.949 0.063816 158.949 0.106301H158.946Z" fill="white"/>
<path d="M49.5521 0.077006V31.923C49.5521 31.9655 49.5176 32 49.4751 32H39.7511C39.7086 32 39.6741 31.9655 39.6741 31.923V9.53547C39.6741 9.36022 39.6661 9.18762 39.6555 9.02033V8.75745C39.6555 7.38196 39.0952 6.13659 38.195 5.23376C37.2948 4.33358 36.0468 3.77595 34.6766 3.77595C32.0744 3.77595 29.9394 5.76749 29.7164 8.31134V31.923C29.7164 31.9655 29.6819 32 29.6394 32H19.918C19.8755 32 19.841 31.9655 19.841 31.923V8.62733C19.8091 7.30495 19.2621 6.10738 18.3859 5.2311C17.414 4.25923 16.0465 3.69098 14.5435 3.78392C11.8563 3.95386 9.88599 6.42602 9.88599 9.11858V9.38677C9.88068 9.43457 9.88068 9.48502 9.88068 9.53282V31.9203C9.88068 31.9628 9.84615 31.9973 9.80367 31.9973H0.0770061C0.03452 31.9973 0 31.9628 0 31.9203V0.077006C0 0.03452 0.03452 0 0.0770061 0H49.4724C49.5149 0 49.5494 0.03452 49.5494 0.077006H49.5521Z" fill="white"/>
<path d="M116.752 23.2313C116.752 23.319 116.752 23.4093 116.747 23.4942C116.747 23.5712 116.736 23.6456 116.728 23.7279C116.715 23.8792 116.696 24.0253 116.665 24.174C116.654 24.2191 116.646 24.2643 116.638 24.3121C116.606 24.4475 116.572 24.5829 116.532 24.7157C116.489 24.8484 116.444 24.9785 116.388 25.106C116.139 25.7273 115.764 26.2876 115.297 26.7549C115.241 26.8107 115.183 26.8665 115.125 26.9196C115.063 26.9753 115.005 27.0231 114.944 27.0709C114.931 27.0869 114.915 27.1001 114.901 27.1081L114.875 27.132C114.832 27.1639 114.795 27.1957 114.75 27.2249C114.724 27.2435 114.697 27.2648 114.67 27.2807C114.599 27.3365 114.522 27.3869 114.445 27.4321C114.365 27.4878 114.28 27.5383 114.192 27.5861C114.11 27.6312 114.017 27.6737 113.935 27.7135L113.93 27.7188C113.871 27.7454 113.813 27.7719 113.752 27.7985C113.744 27.7985 113.733 27.8038 113.728 27.8064C113.715 27.8118 113.701 27.8197 113.688 27.825C113.622 27.8516 113.555 27.8781 113.486 27.9047C113.486 27.9047 113.481 27.9047 113.473 27.9047C113.404 27.9312 113.33 27.9551 113.258 27.979C113.202 27.9976 113.154 28.0083 113.101 28.0242C113.072 28.0295 113.048 28.0428 113.022 28.0481H113.016C113.016 28.0481 112.992 28.0534 112.982 28.0534C112.883 28.0826 112.78 28.1092 112.676 28.1224L112.634 28.1277C112.607 28.1331 112.578 28.1331 112.552 28.1384C112.544 28.1384 112.541 28.1437 112.536 28.1384C112.493 28.1463 112.445 28.149 112.403 28.157C112.363 28.1623 112.326 28.1676 112.289 28.1702C112.214 28.1808 112.145 28.1835 112.076 28.1888C112.063 28.1888 112.05 28.1888 112.036 28.1888C112.01 28.1888 111.986 28.1888 111.959 28.1941C111.928 28.1941 111.898 28.1941 111.866 28.1941C111.835 28.1941 111.808 28.1994 111.776 28.1994C111.588 28.1994 111.399 28.1888 111.216 28.1676C111.155 28.1623 111.091 28.1543 111.033 28.1437C110.857 28.1171 110.69 28.0826 110.526 28.0401C110.379 27.9976 110.236 27.9551 110.093 27.9047C110.016 27.8781 109.944 27.8489 109.87 27.8171C109.859 27.8118 109.846 27.8091 109.838 27.8038H109.832C109.832 27.8038 109.806 27.7958 109.793 27.7879H109.787C109.75 27.7693 109.718 27.7533 109.681 27.7374C109.652 27.7241 109.625 27.7109 109.593 27.6949C109.564 27.6817 109.53 27.6684 109.503 27.6524C109.498 27.6471 109.495 27.6471 109.495 27.6471C109.463 27.6339 109.432 27.6179 109.405 27.5967C109.331 27.5595 109.262 27.5197 109.193 27.4772C109.174 27.4719 109.163 27.4586 109.147 27.4506C109.11 27.4267 109.073 27.4028 109.036 27.3789C109.004 27.3577 108.969 27.3365 108.94 27.3126C108.911 27.294 108.879 27.2701 108.85 27.2488C108.831 27.2356 108.813 27.2196 108.797 27.2063C108.733 27.1612 108.669 27.1134 108.608 27.0603C108.55 27.0099 108.486 26.9567 108.43 26.901C108.409 26.8824 108.388 26.8638 108.367 26.8452C108.154 26.6514 107.966 26.4363 107.796 26.2106C107.727 26.1177 107.655 26.0194 107.594 25.9185C107.544 25.8468 107.498 25.7725 107.456 25.6955C107.451 25.6902 107.448 25.6822 107.443 25.6716C107.4 25.5999 107.36 25.5202 107.321 25.4459C107.14 25.0874 107.002 24.7024 106.912 24.2988C106.906 24.2749 106.901 24.251 106.898 24.2271C106.88 24.1448 106.864 24.0625 106.851 23.9775C106.813 23.7279 106.795 23.4756 106.795 23.2181V19.9441C107.082 19.5856 107.321 19.2882 107.607 18.9297C110.65 18.2553 113.765 17.6074 116.665 16.9621C116.712 16.9515 116.758 16.9887 116.758 17.0365V23.2181L116.752 23.2313ZM96.9144 0V7.59154H106.928C106.928 7.59154 106.933 7.58358 106.933 7.57827C106.973 7.40036 107.028 7.22246 107.095 7.0472C107.103 7.00737 107.124 6.96754 107.14 6.92771C107.14 6.9224 107.14 6.91709 107.148 6.90913C107.161 6.8693 107.177 6.83212 107.193 6.79229C107.222 6.71795 107.259 6.64891 107.294 6.57456C107.368 6.4232 107.451 6.27185 107.544 6.12847C107.573 6.07536 107.607 6.02491 107.642 5.97711C107.671 5.93463 107.7 5.89214 107.729 5.85231C107.759 5.80983 107.791 5.77 107.82 5.72751C107.854 5.68237 107.891 5.63458 107.929 5.59209C107.979 5.52571 108.032 5.46729 108.085 5.41153C108.138 5.35046 108.191 5.2947 108.25 5.23628C108.306 5.18052 108.364 5.12741 108.425 5.07165C108.425 5.07165 108.43 5.06103 108.438 5.05837C108.523 4.98402 108.608 4.90968 108.701 4.84064C108.77 4.78488 108.845 4.73177 108.922 4.67601C108.94 4.66008 108.964 4.64414 108.988 4.62556H108.993L109.007 4.62025C109.097 4.56183 109.19 4.50076 109.283 4.445L109.339 4.41579C109.522 4.31223 109.716 4.21664 109.912 4.13964C109.928 4.13432 109.941 4.12636 109.957 4.12105C109.992 4.10512 110.024 4.09184 110.061 4.08387C110.133 4.04935 110.212 4.02811 110.289 4.00421C110.318 3.99359 110.353 3.98563 110.387 3.97501L111.28 3.81038C111.317 3.80241 111.354 3.79975 111.388 3.79444C111.426 3.79444 111.468 3.78913 111.505 3.78913L111.768 3.78382C111.861 3.78913 112.015 3.79444 112.108 3.7971C112.164 3.80241 112.222 3.80241 112.278 3.81303C112.355 3.81834 112.432 3.82896 112.509 3.83958C112.514 3.83958 112.522 3.83958 112.525 3.83958C112.61 3.85286 112.692 3.86879 112.775 3.88207C112.854 3.90066 112.934 3.91659 113.014 3.93783C113.083 3.95111 113.152 3.97235 113.221 3.99359C113.33 4.02546 113.441 4.06529 113.547 4.11043C113.685 4.16619 113.818 4.22195 113.946 4.28568C113.969 4.2963 113.988 4.30426 114.012 4.31754C114.017 4.31754 114.017 4.31754 114.023 4.32285C114.028 4.32285 114.031 4.32285 114.036 4.32816C114.049 4.33347 114.068 4.34409 114.078 4.35472C114.171 4.3972 114.262 4.45031 114.349 4.50607C114.45 4.56183 114.54 4.62556 114.636 4.6946C114.641 4.69991 114.649 4.70256 114.655 4.71053C114.753 4.77691 114.846 4.85126 114.936 4.92295C115.183 5.12741 115.414 5.35577 115.616 5.60537C115.637 5.63192 115.658 5.65847 115.682 5.68503C115.682 5.69034 115.687 5.69565 115.687 5.6983C115.738 5.76469 115.783 5.82576 115.831 5.89214C115.887 5.96915 115.94 6.04881 115.99 6.13112C116.019 6.17361 116.046 6.21875 116.067 6.25858C116.104 6.31699 116.139 6.37806 116.168 6.43648C116.192 6.47897 116.211 6.52145 116.232 6.56128C116.269 6.63032 116.298 6.70201 116.33 6.77105C116.357 6.82681 116.38 6.88257 116.399 6.93834C116.487 7.15076 116.556 7.3685 116.606 7.5942C116.614 7.63137 116.625 7.66589 116.633 7.70041C116.643 7.73759 116.651 7.78007 116.657 7.82256C116.67 7.89425 116.683 7.9686 116.694 8.04295C116.728 8.27661 116.747 8.51825 116.747 8.76254V11.5639C114.384 12.0896 112.095 12.6021 109.721 13.1305C109.007 13.2898 108.287 13.4518 107.552 13.6138L103.569 14.506C103.369 14.5485 103.173 14.5936 102.974 14.6387L101.763 14.9096C101.351 15.0025 100.94 15.0981 100.518 15.1884C100.518 15.1884 100.516 15.1902 100.512 15.1937C99.2829 15.5097 98.3854 15.7646 97.557 16.6621C97.3445 16.8905 96.9728 17.4428 96.9091 17.9844V17.9898C96.9091 18.0402 96.8984 18.0933 96.8984 18.1411V31.9965H96.9091H126.622V0H96.9091H96.9144Z" fill="white"/>
<path d="M94.2964 7.59951C94.2964 7.62341 94.2858 7.64465 94.2698 7.65793L74.5807 24.3705C74.586 24.3891 74.5887 24.3997 74.5913 24.413C75.1171 26.5956 77.0847 28.2154 79.4266 28.2154C80.8021 28.2154 82.0474 27.6578 82.9503 26.7576C83.5822 26.1283 84.0442 25.3264 84.2646 24.4289C84.2726 24.397 84.3018 24.3731 84.3363 24.3731H94.2194C94.2619 24.3731 94.2964 24.4076 94.2964 24.4501V31.9248C94.2964 31.9673 94.2619 32.0018 94.2194 32.0018H64.6551C64.6126 32.0018 64.5781 31.9673 64.5781 31.9248V24.4076C64.5781 24.3837 64.5887 24.3625 64.6047 24.3492L84.2806 7.63668C84.2885 7.67651 84.2991 7.71369 84.3045 7.74821L84.4133 7.63668H84.2806C83.7707 5.43277 81.7925 3.78382 79.4293 3.78382C78.0565 3.78382 76.8112 4.34409 75.911 5.24425C75.2764 5.87887 74.8144 6.68343 74.5966 7.58092C74.5887 7.61279 74.5595 7.63668 74.5249 7.63668H64.6551C64.6126 7.63668 64.5781 7.60216 64.5781 7.55968V0.0770041C64.5781 0.0345191 64.6126 0 64.6551 0H94.2194C94.2619 0 94.2964 0.0345191 94.2964 0.0770041V7.59951Z" fill="white"/>
</g>
<defs>
<clipPath id="clip0_467_4250">
<rect width="158.946" height="32" fill="white"/>
</clipPath>
</defs>
</svg>
